<svg width="122" height="40" viewBox="0 0 122 40" fill="none" xmlns="http://www.w3.org/2000/svg">
<path d="M35.213 11.501L35.206 6.288L25.586 0V4.022L31.931 8.2L31.936 11.402L28.988 13.398L26.977 11.931V9.446L23.7 7.204V11.727L18.505 14.915L18.495 23.335L14.822 25.403L12.937 23.926V21.488L15.169 19.959V19.939V16.166L11.152 18.854L8.081 16.856L5.276 18.693L9.659 21.694V23.536L6.5 25.674L3.277 23.492V16.23L8.062 12.991L8.066 9.875L14.203 13.827L19.361 10.394L16.216 8.559L14.159 9.947L9.677 6.983L14.731 4.036L19.11 6.603V2.775L14.736 0.211L4.794 6.008L4.787 11.223L0 14.465V25.257L4.787 28.499L4.794 33.714L14.414 40V35.981L8.069 31.803L8.064 28.601L11.012 26.605L13.023 28.072V30.557L16.3 32.798V28.275L21.569 25.088L21.628 16.667L25.178 14.599L27.063 16.076V18.514L24.831 20.043V20.063V23.837L28.848 21.148L31.919 23.146L34.724 21.309L30.34 18.306V16.466L33.5 14.329L36.723 16.511V23.772L31.939 27.012L31.934 30.127L25.797 26.173L20.639 29.584L23.784 31.416L25.841 30.055L30.323 33.019L25.269 35.966L20.89 33.399V37.225L25.264 39.789L35.206 33.995L35.213 28.779L40 25.537V14.743L35.213 11.501Z" fill="#AC6AFF"/>
<path d="M57.2714 29.24C56.0714 29.24 55.0314 29.04 54.1514 28.64C53.2714 28.24 52.5914 27.672 52.1114 26.936C51.6474 26.184 51.4074 25.304 51.3914 24.296H54.3914C54.3914 25.016 54.6474 25.584 55.1594 26C55.6874 26.4 56.3994 26.6 57.2954 26.6C58.1594 26.6 58.8314 26.4 59.3114 26C59.8074 25.6 60.0554 25.048 60.0554 24.344C60.0554 23.752 59.8794 23.24 59.5274 22.808C59.1914 22.36 58.7034 22.056 58.0634 21.896L56.0474 21.344C54.6714 20.992 53.6074 20.36 52.8554 19.448C52.1194 18.536 51.7514 17.432 51.7514 16.136C51.7514 15.144 51.9754 14.28 52.4234 13.544C52.8714 12.808 53.5034 12.24 54.3194 11.84C55.1514 11.44 56.1274 11.24 57.2474 11.24C58.9434 11.24 60.2874 11.68 61.2794 12.56C62.2714 13.424 62.7754 14.592 62.7914 16.064H59.7914C59.7914 15.376 59.5674 14.84 59.1194 14.456C58.6714 14.056 58.0394 13.856 57.2234 13.856C56.4394 13.856 55.8314 14.04 55.3994 14.408C54.9674 14.776 54.7514 15.296 54.7514 15.968C54.7514 16.576 54.9114 17.096 55.2314 17.528C55.5674 17.944 56.0474 18.24 56.6714 18.416L58.7594 18.992C60.1514 19.344 61.2154 19.976 61.9514 20.888C62.6874 21.784 63.0554 22.896 63.0554 24.224C63.0554 25.216 62.8154 26.096 62.3354 26.864C61.8554 27.616 61.1834 28.2 60.3194 28.616C59.4554 29.032 58.4394 29.24 57.2714 29.24ZM73.6301 29C72.7661 29 72.0061 28.824 71.3501 28.472C70.7101 28.12 70.2061 27.624 69.8381 26.984C69.4701 26.328 69.2861 25.576 69.2861 24.728V14.192H65.0621V11.48H72.2861V24.728C72.2861 25.208 72.4221 25.592 72.6941 25.88C72.9821 26.152 73.3661 26.288 73.8461 26.288H77.8301V29H73.6301ZM86.0287 29.24C84.9087 29.24 83.9327 29.024 83.1007 28.592C82.2687 28.16 81.6207 27.56 81.1567 26.792C80.7087 26.008 80.4847 25.096 80.4847 24.056V20.744C80.4847 19.704 80.7087 18.8 81.1567 18.032C81.6207 17.248 82.2687 16.64 83.1007 16.208C83.9327 15.776 84.9087 15.56 86.0287 15.56C87.1327 15.56 88.0927 15.776 88.9087 16.208C89.7407 16.64 90.3807 17.248 90.8287 18.032C91.2927 18.8 91.5247 19.704 91.5247 20.744V23.12H83.3887V24.056C83.3887 24.984 83.6127 25.688 84.0607 26.168C84.5087 26.632 85.1727 26.864 86.0527 26.864C86.7247 26.864 87.2687 26.752 87.6847 26.528C88.1007 26.288 88.3647 25.944 88.4767 25.496H91.4287C91.2047 26.632 90.5967 27.544 89.6047 28.232C88.6287 28.904 87.4367 29.24 86.0287 29.24ZM88.6207 21.44V20.72C88.6207 19.808 88.4047 19.112 87.9727 18.632C87.5407 18.136 86.8927 17.888 86.0287 17.888C85.1647 17.888 84.5087 18.136 84.0607 18.632C83.6127 19.128 83.3887 19.832 83.3887 20.744V21.248L88.8367 21.2L88.6207 21.44ZM100.419 29.24C99.2993 29.24 98.3233 29.024 97.4913 28.592C96.6593 28.16 96.0113 27.56 95.5473 26.792C95.0993 26.008 94.8753 25.096 94.8753 24.056V20.744C94.8753 19.704 95.0993 18.8 95.5473 18.032C96.0113 17.248 96.6593 16.64 97.4913 16.208C98.3233 15.776 99.2993 15.56 100.419 15.56C101.523 15.56 102.483 15.776 103.299 16.208C104.131 16.64 104.771 17.248 105.219 18.032C105.683 18.8 105.915 19.704 105.915 20.744V23.12H97.7793V24.056C97.7793 24.984 98.0033 25.688 98.4513 26.168C98.8993 26.632 99.5633 26.864 100.443 26.864C101.115 26.864 101.659 26.752 102.075 26.528C102.491 26.288 102.755 25.944 102.867 25.496H105.819C105.595 26.632 104.987 27.544 103.995 28.232C103.019 28.904 101.827 29.24 100.419 29.24ZM103.011 21.44V20.72C103.011 19.808 102.795 19.112 102.363 18.632C101.931 18.136 101.283 17.888 100.419 17.888C99.5553 17.888 98.8993 18.136 98.4513 18.632C98.0033 19.128 97.7793 19.832 97.7793 20.744V21.248L103.227 21.2L103.011 21.44ZM109.506 29V11.48H112.506V20.984H114.594L117.81 15.8H121.17L117.186 22.184L121.242 29H117.81L114.594 23.528H112.506V29H109.506Z" fill="white"/>
</svg>
